<svg t="1645631246839" viewBox="0 0 1024 1024" version="1.1" xmlns="http://www.w3.org/2000/svg" p-id="36750" ><path d="M621.1 863.9c14.1-39 6.3-89.7 1.9-111.5a8.4 8.4 0 0 1 8.8-10.1c19 1.3 52.5 3.5 80.7-7a6 6 0 0 1 7.7 7.7c-5.9 16-13.1 43.5-6.9 72.1 8.2 37.2 96.4 41.9 125 42.4a9.7 9.7 0 0 1 9.3 8.1c2.1 11.4 9.2 26.8 14 36.3a9 9 0 0 1-5.4 12.6c-34.7 10.6-100.4 4.8-122.5 2.4a14.3 14.3 0 0 1-10.5-6.6c-5.7-9-25.8-22.2-25.8-22.2s-6.4 9.3-9.4 18.4a10.8 10.8 0 0 1-10.3 7.3h-40.3a9.8 9.8 0 0 1-9.8-8.8c-1.3-12-2.4-32.6-5.6-39.5a1.2 1.2 0 0 1-0.9-1.6z" fill="#DB4C45" p-id="36751"></path><path d="M636.5 869.6c5.2 12.7 43.5 41.2 51.7 36.9s-0.4 9-23.7 7.3-32 4.5-34.6-3.5-6.9-23.7-6.5-31.2a43.6 43.6 0 0 0-1.3-13.5z" fill="#B52D2D" p-id="36752"></path><path d="M656.1 767.9c2.3-5.2 45.5-29.3 48.8-17s-18.6 59.5 3.1 79.7 43.4 24.5 35.5 29.6-67.6-2.9-82.5-17.7-4.9-74.6-4.9-74.6z" fill="#F46464" p-id="36753"></path><path d="M839.8 881.9c8.2 0.6 1.2-14.9-7.5-14.9s-59.8-7-64.6-4.3 43 17.1 72.1 19.2z" fill="#FFFFFF" p-id="36754"></path><path d="M438.7 875.4c-14.1-39-6.3-89.7-1.9-111.5a8.4 8.4 0 0 0-8.8-10.1c-19 1.3-52.5 3.5-80.7-7a6 6 0 0 0-7.7 7.7c5.9 16 13.1 43.5 6.9 72.1-8.2 37.2-96.4 41.9-125 42.4a9.7 9.7 0 0 0-9.3 8.1c-2.1 11.4-9.2 26.8-14 36.3a9 9 0 0 0 5.4 12.6c34.7 10.6 100.4 4.8 122.5 2.4a14.3 14.3 0 0 0 10.5-6.6c5.7-9 25.8-22.2 25.8-22.2s6.4 9.3 9.4 18.4a10.8 10.8 0 0 0 10.3 7.3h40.5a9.8 9.8 0 0 0 9.8-8.8c1.3-12 2.4-32.6 5.6-39.5a1.2 1.2 0 0 0 0.7-1.6z" fill="#DB4C45" p-id="36755"></path><path d="M423.3 881c-5.2 12.7-43.5 41.2-51.7 36.9s0.4 9 23.7 7.3 32 4.5 34.6-3.5 6.9-23.7 6.5-31.2a43.6 43.6 0 0 1 1.3-13.5z" fill="#B52D2D" p-id="36756"></path><path d="M403.7 779.3c-2.3-5.2-45.5-29.3-48.8-17s18.6 59.5-3.1 79.7-43.4 24.5-35.5 29.6 67.6-2.9 82.5-17.7 4.9-74.6 4.9-74.6z" fill="#F46464" p-id="36757"></path><path d="M220 893.3c-8.2 0.6-1.2-14.9 7.5-14.9s59.8-7 64.6-4.3-43 17.1-72.1 19.2z" fill="#FFFFFF" p-id="36758"></path><path d="M173.4 478.1c0-51.9 129.9-301.6 332.4-301.6s372.4 143.4 372.4 264.7-216.2 276-308 276-396.8-85.1-396.8-239.1z" fill="#5E5E5E" p-id="36759"></path><path d="M174.4 493.5c19.4 144.2 307 223.7 395.7 223.7 91.9 0 308-154.7 308-276 0-26.3-8-53.5-22.5-80.2-27.1 104.1-189.7 220.7-287 234.6-100.8 14.5-262.4-5.2-394.2-102.1z" fill="#545454" p-id="36760"></path><path d="M211 462.5c6.4-47.2 109-229.8 237.1-250.2s232 82.3 82.2 178.4S197.1 564.8 211 462.5z" fill="#777777" p-id="36761"></path><path d="M249.3 448.2c20-70.5 66.5-183.2 180.1-205.5s27.2 91.7-28.6 141.1-166.7 118.1-151.5 64.4z" fill="#939393" p-id="36762"></path><path d="M714.5 508.3m-60.1 0a60.1 60.1 0 1 0 120.2 0 60.1 60.1 0 1 0-120.2 0Z" fill="#FFFFFF" p-id="36763"></path><path d="M714.7 505.5m-43.8 0a43.8 43.8 0 1 0 87.6 0 43.8 43.8 0 1 0-87.6 0Z" fill="#CCCCCC" p-id="36764"></path><path d="M401.9 310.7a138.1 138.1 0 0 0 137.5 229.8l18 18a23.4 23.4 0 0 0 39.7-19.5 23.3 23.3 0 0 0 19.5-6.6 23.3 23.3 0 0 0 6.8-18.5 23.4 23.4 0 0 0 18.5-39.8L627.6 460a138.1 138.1 0 0 0-225.7-149.3z m115.5 153.9c0 16.1-19.5 29.1-43.6 29.1s-43.6-13-43.6-29.1 19.5-29.1 43.6-29.1 43.6 13 43.6 29.1z m66 4.2c2.3 2.3-0.3 8.7-5.8 14.2l-1.5 1.5c-5.5 5.5-11.9 8.1-14.2 5.8L550.6 479c-2.3-2.3 0.3-8.7 5.8-14.2l1.5-1.5c5.5-5.5 11.9-8.1 14.2-5.8z m2.3-87c0 24.1-13 43.6-29.1 43.6s-29.1-19.5-29.1-43.6 13-43.6 29.1-43.6 29.1 19.5 29.1 43.6z" fill="#FFFFFF" p-id="36765"></path><path d="M595.4 551.1c-37.6 4.3-58.3-38.6-58.3-38.6-73.7 7.7-129.1-5-171.3-70.1a138.1 138.1 0 0 0 173.7 98.1l18 18a23.4 23.4 0 0 0 38-7.4z" fill="#CCCCCC" p-id="36766"></path><path d="M537.2 692.3c-49.2 0-150.6-23.3-234.9-62.3-49.1-22.7-88.2-48.2-116.3-76-33.6-33.1-50.6-68.7-50.6-105.9 0-14.6 9-41.2 24-71.3a530.5 530.5 0 0 1 67.5-102.2c32.7-39 68.4-70.2 106-92.6 45.1-26.9 92.2-40.5 139.9-40.5A443.8 443.8 0 0 1 618 166.2c43.3 15 84.7 36.8 119.9 63.3 70.3 52.9 112.2 120.9 112.2 181.9 0 29.6-12.1 62.3-36.1 97.1-20.8 30.3-50.3 61.5-85.3 90.2-68.1 56-145.1 93.6-191.5 93.6z m-64.4-540.7c-45.9 0-91.2 13.2-134.8 39.1-36.7 21.9-71.5 52.3-103.5 90.4-25.6 30.6-49.1 66.2-66.2 100.3s-22.9 56.7-22.9 66.8c0 34.4 16 67.6 47.6 98.8 27.3 26.9 65.4 51.8 113.4 74 83.1 38.4 182.6 61.4 230.7 61.4 43.6 0 119.8-37.6 185.3-91.4 34.3-28.2 63.1-58.6 83.4-88.2 22.8-33.1 34.3-63.9 34.3-91.5 0-57.8-40.5-122.8-108.3-173.9-34.3-25.8-74.8-47.2-117.1-61.8a433.8 433.8 0 0 0-141.9-24z" fill="#3D3D3D" p-id="36767"></path><path d="M542.2 673.5a5 5 0 0 1-4.6-7c60.2-139.8 54-255.8 38.1-328.5-12.5-57.3-43.8-134-83.2-167.1a5 5 0 0 1 6.4-7.7c29.8 25.1 68.1 88.2 86.5 172.6 16.2 74.2 22.6 192.4-38.7 334.6a5 5 0 0 1-4.5 3.1z" fill="#3D3D3D" p-id="36768"></path><path d="M172.1 472.6a5 5 0 0 1-2.7-9.2c11.7-7.6 24.8-16.8 38.8-26.5C274 391.2 364 328.6 469.7 302.4c58-14.4 114.9-16.1 169.2-5 63.3 12.9 125.1 43.6 183.7 91.1a5 5 0 0 1-6.3 7.8c-57.4-46.5-117.8-76.5-179.4-89.1-52.8-10.8-108.2-9.1-164.8 4.9C368.1 338 279 400 213.8 445.2c-14 9.7-27.2 18.9-39 26.6a5 5 0 0 1-2.7 0.8z" fill="#3D3D3D" p-id="36769"></path><path d="M156.5 584.2a40.7 40.7 0 0 1-12-1.9c-19.7-6.1-38.3-27-52.3-59.1-12.6-28.8-19.4-62-18.1-88.8 2.2-45.1 25.5-82.9 56.6-91.9 23.5-6.8 47.3 4.1 65.4 29.9a5 5 0 1 1-8.2 5.7c-15.7-22.4-35-31.7-54.4-26.1-27.1 7.8-47.4 41.8-49.4 82.7-1.2 25.3 5.2 56.8 17.2 84.3s29.4 48.4 46.1 53.5c18.5 5.7 36.8-6 54.4-34.9a5 5 0 0 1 8.5 5.2c-11.8 20-30.3 41.4-53.8 41.4zM854.2 556.1c-15.5 0-35.5-8.3-53.6-41a5 5 0 0 1 8.7-4.8c16.4 29.6 37.1 41.4 58.2 33.2s38.9-32.4 50.3-65.8c12.7-37.1 14.5-78.9 5.2-117.8-12.7-53.2-32.7-84.6-58-90.6-7.4-1.8-33.6-4.9-62.5 29.2a5 5 0 1 1-7.5-6.5c22-25.9 49-38 72.4-32.4 29.6 7.1 51.6 40.1 65.4 98 21 88.3-15.9 177.5-61.7 195.3a47.2 47.2 0 0 1-16.9 3.2zM701.5 560.8a72.6 72.6 0 1 1 72.6-72.6 72.6 72.6 0 0 1-72.6 72.6z m0-135.1a62.6 62.6 0 1 0 62.6 62.6 62.6 62.6 0 0 0-62.6-62.6z" fill="#3D3D3D" p-id="36770"></path><path d="M703.2 542.1a53.8 53.8 0 1 1 53.8-53.8 53.9 53.9 0 0 1-53.8 53.8z m0-97.7a43.8 43.8 0 1 0 43.8 43.9 43.9 43.9 0 0 0-43.8-43.9zM261.6 936.2c-21.3 0-42.9-1.5-58.6-6.4a13 13 0 0 1-7.8-18.3c4.2-8.4 11.6-24 13.6-35.2a13.8 13.8 0 0 1 13.3-11.3c54.6-1 115.2-11.8 121.2-39.2s-0.4-52.9-6.7-69.9a10 10 0 0 1 12.8-12.9c27.6 10.3 61.1 8 79.1 6.8a12.4 12.4 0 0 1 13 14.9c-4.1 20.1-12.1 71 1.7 109.3a5.2 5.2 0 0 1-4.2 7c-7.9 1-78.2 11.2-98.5 43a18.2 18.2 0 0 1-13.4 8.4 639.7 639.7 0 0 1-65.5 3.8z m84.2-185.8a1.9 1.9 0 0 0-1.4 0.6 1.9 1.9 0 0 0-0.4 2.1c6.7 18 13.3 45.6 7 74.4-8.6 39.1-93 44.9-128.9 45.5a5.7 5.7 0 0 0-5.5 4.8c-2.1 11.6-9 26.7-14.4 37.4a5 5 0 0 0 3 7c34.3 10.5 101.2 4.4 120.9 2.2a10.3 10.3 0 0 0 7.5-4.8c20.3-31.9 81.7-43.3 100.8-46.1-13-39.8-5.1-90.2-0.9-110.4a4.4 4.4 0 0 0-4.6-5.3c-18.6 1.3-53.2 3.7-82.4-7.2z" fill="#3D3D3D" p-id="36771"></path><path d="M337.6 868.3a4 4 0 0 1-3.4-1.9l-9-14.7a4 4 0 0 1 6.8-4.2l7.4 12c13.2-4.4 22.2-11.6 27.5-21.9 13.2-25.7-1-65.8-7.8-85.1a4 4 0 0 1 7.5-2.7c7.7 21.9 22.1 62.7 7.4 91.5-6.6 12.9-18.5 22-35.3 26.9z" fill="#3D3D3D" p-id="36772"></path><path d="M371.7 783.3a4 4 0 0 1-2.7-1.1c-2.8-0.9-13.6-2-22.5-2.5a4 4 0 1 1 0.5-8c0.3 0 6.3 0.4 12.5 1 12.3 1.2 15.3 2.3 16.2 5.6a4 4 0 0 1-2.9 4.9z m-2.4-0.9z m-1.5-2.1z m0 0zM376.2 810.5a4 4 0 0 1-1.6-0.3c-4.6-2-17.9-7-24.7-6.2a4 4 0 1 1-0.9-8c10.1-1.1 26.9 6 28.7 6.8a4 4 0 0 1-1.6 7.7zM370.6 843.3a4 4 0 0 1-2.2-0.6 32.8 32.8 0 0 1-3.5-2.9c-4-3.6-12.3-10.9-17.8-11.6a4 4 0 0 1 0.9-7.9c7.4 0.8 15.4 7.4 22.3 13.6l2.5 2.2a4 4 0 0 1-2.2 7.4zM722.9 856.4l-1.1-0.2c-16.8-4.9-28.7-13.9-35.3-26.9-14.7-28.7-0.4-69.5 7.4-91.5a4 4 0 0 1 7.5 2.7c-6.8 19.3-21 59.5-7.8 85.1 5.3 10.3 14.3 17.5 27.5 21.9l7.4-12a4 4 0 0 1 6.8 4.2l-9 14.7a4 4 0 0 1-3.4 2z" fill="#3D3D3D" p-id="36773"></path><path d="M688.8 771.4h-1a4 4 0 0 1-2.9-4.9c0.8-3.3 3.9-4.4 16.2-5.6 6.2-0.6 12.2-1 12.5-1a4 4 0 1 1 0.5 8c-8.9 0.5-19.7 1.6-22.5 2.5a4 4 0 0 1-2.8 1z m3.9-3z m0 0zM684.3 798.6a4 4 0 0 1-1.6-7.7c1.9-0.8 18.6-7.9 28.7-6.8a4 4 0 1 1-0.9 8c-6.8-0.7-20.1 4.2-24.7 6.2a4 4 0 0 1-1.5 0.3zM689.9 831.4a4 4 0 0 1-2.2-7.4l2.5-2.2c6.9-6.1 14.8-12.7 22.3-13.6a4 4 0 1 1 0.9 7.9c-5.5 0.6-13.8 8-17.8 11.6a32.6 32.6 0 0 1-3.5 2.9 4 4 0 0 1-2.2 0.8zM423.1 929.3h-40.4a14.8 14.8 0 0 1-14.1-10c-2.8-8.4-8.9-17.3-8.9-17.4l6.6-4.5c0.3 0.4 6.8 9.9 9.9 19.4a6.8 6.8 0 0 0 6.5 4.6h40.5a5.8 5.8 0 0 0 5.8-5.2c0.3-2.7 0.6-5.8 0.9-9.1 1.1-12.1 2.3-25.7 5.1-31.7l7.2 3.4c-2.2 4.7-3.4 18.8-4.4 29-0.3 3.3-0.6 6.5-0.9 9.2a13.8 13.8 0 0 1-13.8 12.3z" fill="#3D3D3D" p-id="36774"></path><path d="M798.9 923.5a639.4 639.4 0 0 1-65.5-3.8 18.2 18.2 0 0 1-13.4-8.4c-20.3-31.8-90.5-41.9-98.5-43a5.2 5.2 0 0 1-4.2-7c13.9-38.3 5.8-89.2 1.7-109.3a12.4 12.4 0 0 1 13-14.9c18 1.2 51.5 3.5 79.1-6.8a10 10 0 0 1 12.9 12.8c-6.3 17-12.6 43-6.7 69.9s66.5 38.2 121.2 39.2a13.8 13.8 0 0 1 13.2 11.4c2 11.2 9.4 26.9 13.6 35.2a13 13 0 0 1-7.8 18.3c-15.7 4.8-37.3 6.4-58.6 6.4zM626 860.8c19 2.8 80.5 14.2 100.8 46.1a10.3 10.3 0 0 0 7.5 4.8c19.7 2.1 86.6 8.2 120.9-2.2a5 5 0 0 0 3-7c-5.4-10.7-12.3-25.8-14.4-37.4a5.7 5.7 0 0 0-5.5-4.8c-35.9-0.7-120.3-6.4-128.8-45.5-6.3-28.8 0.3-56.4 7-74.4a2 2 0 0 0-2.5-2.5c-29.2 10.9-63.8 8.5-82.4 7.2a4.4 4.4 0 0 0-4.6 5.3c4 20.2 12 70.6-1 110.4z" fill="#3D3D3D" p-id="36775"></path><path d="M677.9 916.6h-40.5a13.8 13.8 0 0 1-13.7-12.3c-0.3-2.7-0.6-5.9-0.9-9.2-0.9-10.3-2.2-24.3-4.4-29l7.3-3.4c2.8 6 4 19.6 5.1 31.7 0.3 3.3 0.6 6.4 0.9 9.1a5.8 5.8 0 0 0 5.8 5.2H678a6.8 6.8 0 0 0 6.5-4.6c3.2-9.5 9.7-19 9.9-19.4l6.6 4.5c-0.1 0.1-6.1 9-8.9 17.4a14.8 14.8 0 0 1-14.2 10zM217.3 919h-0.3a52.8 52.8 0 0 1-6.5-0.8 4 4 0 0 1 1.8-7.8 45.1 45.1 0 0 0 5.4 0.6 4 4 0 0 1-0.3 8zM266.6 920.7h-12.4a4 4 0 0 1 0.1-8h12.4a4 4 0 0 1 0 8z m12.3 0a4 4 0 0 1 0-8l12.3-0.3a4 4 0 0 1 0.3 8l-12.4 0.3z m-37-0.4h-0.1l-12.4-0.5a4 4 0 0 1 0.4-8l12.3 0.5a4 4 0 0 1-0.1 8z m61.7-0.5a4 4 0 0 1-0.3-8c4.6-0.3 8.7-0.7 12-1.2a4 4 0 1 1 1.1 7.9c-3.5 0.5-7.7 0.9-12.6 1.2z m24.2-4.3a4 4 0 0 1-1.7-7.6 33.5 33.5 0 0 0 8.8-6.5 4 4 0 0 1 5.5 5.8 40.6 40.6 0 0 1-10.9 8 4 4 0 0 1-1.7 0.3z m18.8-15.7a4 4 0 0 1-2.7-7 96.4 96.4 0 0 1 10.1-7.9 4 4 0 1 1 4.5 6.6 88.5 88.5 0 0 0-9.3 7.2 4 4 0 0 1-2.6 1.1zM367 886a4 4 0 0 1-1.8-7.6c3.6-1.8 7.4-3.6 11.5-5.3a4 4 0 1 1 3.1 7.4c-3.9 1.6-7.5 3.3-10.9 5a4 4 0 0 1-1.9 0.5z m22.7-9.5a4 4 0 0 1-1.3-7.8c3.8-1.3 7.8-2.5 12-3.7a4 4 0 0 1 2.2 7.7c-4 1.2-7.9 2.4-11.6 3.6zM413.6 869.7a4 4 0 0 1-0.9-7.9l5.9-1.4a4 4 0 0 1 1.8 7.8l-5.8 1.4zM844.9 907.5a4 4 0 0 1-0.3-8 45.1 45.1 0 0 0 5.4-0.6 4 4 0 1 1 1.8 7.8 52.8 52.8 0 0 1-6.5 0.8zM795.6 909.2a4 4 0 0 1 0-8H808a4 4 0 0 1 0.1 8h-12.5z m-12.3 0l-12.4-0.3a4 4 0 1 1 0.3-8l12.3 0.3a4 4 0 0 1 0 8z m37-0.4a4 4 0 0 1-0.1-8l12.3-0.5a4 4 0 1 1 0.4 8l-12.4 0.5z m-61.7-0.5h-0.3c-4.8-0.3-9.1-0.7-12.6-1.2a4 4 0 0 1 1.1-7.9c3.3 0.5 7.4 0.9 12 1.2a4 4 0 0 1-0.3 8z m-24.2-4.3a4 4 0 0 1-1.7-0.4 40.6 40.6 0 0 1-10.9-8 4 4 0 0 1 5.5-5.8 33.4 33.4 0 0 0 8.8 6.5 4 4 0 0 1-1.7 7.6z m-18.8-15.7a4 4 0 0 1-2.7-1 88.4 88.4 0 0 0-9.3-7.2 4 4 0 1 1 4.5-6.6 96.4 96.4 0 0 1 10.1 7.9 4 4 0 0 1-2.7 7z m-20.3-13.8a4 4 0 0 1-1.8-0.4c-3.3-1.7-7-3.4-10.9-5a4 4 0 1 1 3.1-7.4c4.1 1.7 7.9 3.5 11.5 5.3a4 4 0 0 1-1.8 7.6z m-22.8-9.5l-1.3-0.2c-3.6-1.2-7.5-2.4-11.6-3.6a4 4 0 1 1 2.2-7.7c4.2 1.2 8.2 2.4 12 3.7a4 4 0 0 1-1.3 7.8zM648.6 858.2h-0.9l-5.8-1.4a4 4 0 1 1 1.8-7.8l5.9 1.4a4 4 0 0 1-0.9 7.9zM207.7 747.4h-13.2a5 5 0 0 1-5-5v-13.2a5 5 0 0 0-5-5 5 5 0 0 0-5 5v13.2a5 5 0 0 1-5 5h-13.3a5 5 0 0 0-5 5 5 5 0 0 0 5 5h13.2a5 5 0 0 1 5 5v13.2a5 5 0 0 0 5 5 5 5 0 0 0 5-5v-13.1a5 5 0 0 1 5-5h13.2a5 5 0 0 0 5-5 5 5 0 0 0-4.9-5.1zM842.4 141h-17.8a6.8 6.8 0 0 1-6.8-6.8v-17.8a6.8 6.8 0 0 0-6.8-6.8 6.8 6.8 0 0 0-6.8 6.8v17.8a6.8 6.8 0 0 1-6.8 6.8h-17.8a6.8 6.8 0 0 0-6.8 6.8 6.8 6.8 0 0 0 6.8 6.8h17.8a6.8 6.8 0 0 1 6.8 6.8v17.8a6.8 6.8 0 0 0 6.8 6.8 6.8 6.8 0 0 0 6.8-6.8v-17.9a6.8 6.8 0 0 1 6.8-6.8h17.8a6.8 6.8 0 0 0 6.8-6.8 6.8 6.8 0 0 0-6.8-6.7z" fill="#3D3D3D" p-id="36776"></path></svg>